<svg width="24" height="24" viewBox="0 0 24 24" fill="none" xmlns="http://www.w3.org/2000/svg">
<path  clipRule="evenodd" d="M16.4096 12.2959C15.8423 12.2959 15.3821 12.7619 15.3821 13.3365C15.3821 13.911 15.8423 14.3771 16.4096 14.3771C16.9769 14.3771 17.4369 13.911 17.4369 13.3365C17.4369 12.7619 16.9769 12.2959 16.4096 12.2959Z" fill="#2F4F98"/>
<path  clipRule="evenodd" d="M17.0789 9.21076C16.6891 8.26408 16.2898 7.46116 15.7041 7.17967C15.2487 6.99462 14.7639 6.8934 14.2731 6.88132C12.5172 6.73755 10.7523 6.74385 8.99766 6.9002C8.52755 6.9435 7.85208 6.99084 7.43044 7.191C6.83925 7.4745 6.43824 8.27566 6.04072 9.2314C5.97534 9.40714 5.87092 9.87948 5.80927 9.87948H17.3216C17.3027 9.87948 17.1349 9.33916 17.0789 9.21076Z" fill="#2F4F98"/>
<path  clipRule="evenodd" d="M6.979 12.2695C6.41018 12.2695 5.94926 12.7363 5.94926 13.3123C5.94926 13.8884 6.41018 14.3552 6.979 14.3552C7.54782 14.3552 8.00873 13.8884 8.00873 13.3123C8.00873 12.7363 7.54782 12.2695 6.979 12.2695Z" fill="#2F4F98"/>
<mask id="mask0" mask-type="alpha" maskUnits="userSpaceOnUse" x="0" y="0" width="24" height="24">
<path d="M0 0H23.5714V23.8602H0V0Z" fill="white"/>
</mask>
<g mask="url(#mask0)">
<path  clipRule="evenodd" d="M3.31281 9.34981H4.24409C4.47107 9.32489 4.67518 9.49106 4.69979 9.72093C4.70004 9.72295 4.70029 9.72496 4.70054 9.72723H5.04138C5.13237 9.40243 5.2425 9.08368 5.37103 8.77274C5.82922 7.61431 6.30232 6.75223 6.98425 6.41082C7.4939 6.18925 8.03636 6.05481 8.58976 6.01276C9.33484 5.91834 10.0799 5.87302 10.825 5.85238C11.6725 5.82795 12.5237 5.83551 13.3732 5.87705C14.0897 5.90399 14.804 5.97701 15.5115 6.09585C15.8978 6.14998 16.2742 6.26051 16.629 6.42391C17.3127 6.76154 17.7766 7.60122 18.231 8.74429C18.3628 9.06505 18.4759 9.39312 18.5701 9.72723H18.911C18.9333 9.49584 19.1365 9.32665 19.3647 9.34931C19.3662 9.34956 19.3677 9.34956 19.3692 9.34981H20.3004C20.3004 9.34981 21.1313 9.33848 21.1201 10.0611C21.1121 10.2298 21.0301 10.3861 20.8966 10.4873C20.4792 10.8967 19.6578 10.7985 19.6578 10.7985C19.6578 10.7985 19.1827 10.8174 19.043 10.5196C19.0156 10.4604 18.9803 10.4053 18.9388 10.3554C18.8642 10.2665 18.7526 10.2648 18.7991 10.3667C18.8973 10.5752 19.0171 10.7724 19.1568 10.9551C19.3232 11.1535 19.4596 11.3761 19.5608 11.6156C19.8102 12.0917 19.9442 12.6214 19.9521 13.1605C19.9651 14.0047 19.664 14.8227 19.1084 15.4524V16.6748C19.0992 17.4147 18.5052 18.0102 17.7746 18.0125H16.3647C15.6756 18.0125 15.1073 17.2579 15.0608 16.8805H8.55819C8.50598 17.2579 7.93791 18.0125 7.25424 18.0125H5.84413C5.13436 18.0052 4.56455 17.417 4.57151 16.6982C4.57151 16.6901 4.57176 16.6826 4.57201 16.6748V15.4544C3.62879 14.408 3.42592 12.8785 4.06335 11.6173H4.05217C4.15534 11.3789 4.29133 11.1566 4.4564 10.9569C4.59488 10.7756 4.71471 10.5802 4.81415 10.374C4.86238 10.2741 4.74703 10.2761 4.67443 10.374C4.63142 10.4249 4.59587 10.4813 4.56828 10.542C4.43055 10.8401 3.95546 10.8308 3.95546 10.8308C3.95546 10.8308 3.13207 10.9438 2.71665 10.5362C2.57718 10.4189 2.49538 10.2449 2.49315 10.0611C2.49315 9.33848 3.31281 9.34981 3.31281 9.34981ZM5.54804 22.087C7.1006 23.0853 8.86646 23.6933 10.6985 23.8602H23.5714V11.1022C23.3852 9.89113 23.2231 8.72918 22.8094 7.64453C20.4595 1.48832 13.6268 -1.57278 7.54834 0.807267C1.46963 3.18706 -1.55295 10.1069 0.796895 16.2631C1.71724 18.6734 3.38416 20.7168 5.54804 22.087Z" fill="#2F4F98"/>
</g>
</svg>
